<svg xmlns="http://www.w3.org/2000/svg" width="540" height="525" viewBox="-209 18 540 525"><path fill="#333" d="M211 153V48c0-16.6-13.4-30-30-30h-360c-16.6 0-30 13.4-30 30v465c0 16.6 13.4 30 30 30h360c16.6 0 30-13.4 30-30V408h-90v30c0 8.3-6.7 15-15 15h-210c-8.3 0-15-6.7-15-15V123c0-8.3 6.7-15 15-15h210c8.3 0 15 6.7 15 15v30h90z"/><path fill="#333" d="M83.5 138h-165c-4.1 0-7.5 3.4-7.5 7.5V303c0 4.1 3.4 7.5 7.5 7.5H19.8c2.1 0 3.8 1.7 3.8 3.8v45c0 2.1-1.7 3.8-3.8 3.8h-37.6c-2.1 0-3.8-1.7-3.8-3.8v-18.8H-89v75c0 4.1 3.4 7.5 7.5 7.5h165c4.1 0 7.5-3.4 7.5-7.5V258c0-4.1-3.4-7.5-7.5-7.5H-17.8c-2.1 0-3.8-1.7-3.8-3.8v-45c0-2.1 1.7-3.8 3.8-3.8h37.5c2.1 0 3.8 1.7 3.8 3.8v18.8H91v-75c0-4.1-3.4-7.5-7.5-7.5zM211 318v60h-90V183h90v60h30V18h90v525h-90V318z"/></svg>