<svg xmlns="http://www.w3.org/2000/svg" viewBox="0 0 237.286 285.78" fill="#dd4124"><path d="M135.018 168.439c9.024 0 9.024-12.031 9.024-12.031-21.558 0-24.039-80.118-24.156-112.747.061-4.375.094-8.896.094-13.583l-12.031-5.98a919.143 919.143 0 0 0-.279 18.695c-.898 36.477-4.699 113.615-20.776 113.615-5.901 0-11.565-11.345-16.199-27.67C84.786 92.996 112.864 0 68.846 0 41.812 0 43.534 80.511 58.105 130.208c-8.003 15.528-17.736 26.2-28.361 26.2-12.031 0-18.047-7.407-18.047-16.543 0-9.137 7.406-16.544 16.543-16.544 4.027 0 13.535 3.008 16.543 15.039l6.016-9.023c-3.008-15.039-15.964-17.712-22.559-17.713-15.571 0-28.24 12.669-28.24 28.241 0 7.783 2.826 14.881 7.957 19.989 3.782 3.764 10.632 8.252 21.787 8.252 10.468 0 20.211-5.773 28.959-17.156 1.488-1.936 2.943-4.049 4.371-6.303 5.841 14.377 12.989 23.793 20.811 23.793 4.185 0 20.01 2.892 29.258-43.931 6.257 34.858 16.334 43.93 21.875 43.93zM68.846 12.031c16.933 0 12.682 56.488-2.446 98.797-8.594-42.309-10.724-98.797 2.446-98.797z"/><path d="M237.286 165.467c-16.648-1.38-31.677-.064-45.1 3.21 12.535-43.844 21.036-89.715 21.036-117.508l-12.031-6.016c0 30.078-21.055 108.282-33.086 99.259-17.417-13.063-5.138-81.989-3.244-92.024l-12.052-5.991c-2.235 11.07-17.778 92.608 6.271 107.038 9.464 5.678 18.332 1.818 26.043-7.443a691.095 691.095 0 0 1-7.691 27.293c-71.186 27.352-87.337 112.495-48.43 112.495 19.156 0 41.701-47.457 58.642-101.883 12.35-4.007 26.79-6.399 43.626-6.399l6.016-12.031zM125.995 270.741c-9.227 0-4.297-54.841 45.989-80.405-15.068 44.89-32.965 80.405-45.989 80.405z"/></svg>