<svg xmlns="http://www.w3.org/2000/svg" width="154.6" height="78.5" viewBox="-1608 966 154.6 78.5"><path fill="#333" d="M-1488.5 997.1c-3.2-3.1-7.2-4.7-11.8-4.7h-32.2v52.1h10.1v-20h22.2c4.6 0 8.6-1.6 11.8-4.8 3.2-3.2 4.8-7 4.8-11.3-.1-4.4-1.7-8.1-4.9-11.3zm-7.1 15.8c-1.3 1.3-2.9 1.9-4.7 1.9h-22.2v-12.7h22.2c1.8 0 3.4.6 4.7 1.9s1.9 2.7 1.9 4.4c0 1.8-.6 3.3-1.9 4.5zM-1544.6 996.9v14.2c-3.4-1.5-7.1-2.3-11.2-2.3-1.2 0-2.3.1-3.4.2v-.6c0-4.4-1.6-8.2-4.8-11.3-3.2-3.1-7.2-4.7-11.8-4.7h-32.2v52.1h10v-20h20.5c-.1.7-.1 1.4-.1 2.2 0 5.2 1.9 9.4 5.8 12.7 4.1 3.4 9.5 5.1 16.4 5.1 2.1 0 4.3-.4 6.6-.9 2-.5 3.4-1 4.3-1.6v2.5h10.6v-52.1l-10.7 4.5zm-31.2 5.2c1.8 0 3.4.6 4.7 1.9s1.9 2.7 1.9 4.4c0 1.8-.6 3.3-1.9 4.5-1.3 1.3-2.9 1.9-4.7 1.9h-22.2v-12.7m0 0h22.2m31.2 30.6c-2.9 2.2-6.4 3.2-10.5 3.2-3.4 0-6.2-.8-8.4-2.3-2.5-1.7-3.7-4-3.7-7.1 0-3 1.2-5.3 3.6-6.9 2.1-1.5 4.9-2.2 8.2-2.2 4.2 0 7.8 1 10.8 3.1v12.2z"/><path fill="#333" d="M-1454.5 1024.4c.7-3.3 1.1-6.8 1.1-10.3 0-26.6-21.5-48.1-47.9-48.1-19.1 0-35.5 11.2-43.3 27.4 9.7-8.2 22.2-13.2 35.8-13.2 26.8 0 49.1 18.9 54.3 44.2z"/></svg>