<svg xmlns="http://www.w3.org/2000/svg" width="158.6" height="47.2" viewBox="-800 515.4 158.6 47.2"><path fill="#222" d="M-760.1 556.9l-15.1-17.4c7.1-.6 12.9-4.6 12.9-12.3 0-9.9-8.2-11.8-16.3-11.8-3 .1-6.1.2-9.1.3l-12.3-.3v1.6c2.3 0 5.3-.1 6.1 2.4.6 1.9.6 7.2.6 9.5V549c0 2.3 0 7.6-.6 9.5-.8 2.4-3.8 2.4-6.1 2.4v1.6l10.7-.3c3.4.1 6.8.2 10.1.3v-1.6c-2.3 0-5.2.1-6.1-2.4-.6-1.9-.6-7.2-.6-9.5v-8.3c3.8 0 3.5.4 5.9 3.1l11.9 14.7 3.4 4.1 5.4-.3c2.1.1 4.3.2 6.4.3V561c-3.9-.5-4.9-1.5-7.2-4.1zm-25.9-18.1v-18.6c0-.8-.1-2.1.8-2.6.6-.3 3.8-.1 4.6-.1 6.4 0 10 4.4 10 10.7 0 10.4-6.5 10.6-15.4 10.6zM-725 549.1c0 2.3 0 7.6-.7 9.5-.9 2.4-3.9 2.4-6.1 2.4v1.6l10.8-.3 10.3.3V561c-2.3 0-5.2 0-6.1-2.4-.7-1.9-.7-7.2-.7-9.5V529c0-2.3 0-7.6.7-9.5.9-2.4 3.9-2.4 6.1-2.4v-1.6c-3.6.1-7.1.2-10.8.3l-10.3-.3v1.6c2.3 0 5.2 0 6.1 2.4.7 1.9.7 7.2.7 9.5v20.1zM-642.1 515.4H-686v11.1h1.6c.3-8.5 3.7-8.9 10.8-8.9 2.9 0 6-.2 6 1.9v33.8c0 5.3-1 7.3-7.9 7.6v1.6c3.9-.1 7.6-.2 11.4-.3 3.9.1 7.9.2 11.9.3v-1.6c-6.9-.3-7.9-2.3-7.9-7.6v-33.8c0-2.3 4.3-1.9 6.9-1.9 6.7 0 9.4 1.9 9.9 8.9h1.9l-.7-11.1zM-748 539.1c0-1.6 1.3-2.8 2.8-2.8 1.6 0 2.8 1.3 2.8 2.8 0 1.6-1.3 2.8-2.8 2.8-1.5.1-2.8-1.2-2.8-2.8zM-700.3 539.1c0-1.6 1.3-2.8 2.8-2.8 1.6 0 2.8 1.3 2.8 2.8 0 1.6-1.3 2.8-2.8 2.8-1.6.1-2.8-1.2-2.8-2.8z"/></svg>