<svg xmlns="http://www.w3.org/2000/svg" width="168" height="112" viewBox="0 0 168 112"><g fill="#FFF"><path d="M28 56C12.561 56 0 43.439 0 28S12.561 0 28 0s28 12.561 28 28-12.561 28-28 28zm0-54C13.663 2 2 13.663 2 28s11.663 26 26 26 26-11.663 26-26S42.337 2 28 2z"/><path d="M37.52 20.177H18.525a2.048 2.048 0 0 0-2.048 2.049v12c0 1.131.917 2.048 2.048 2.048H37.52a2.048 2.048 0 0 0 2.048-2.048v-12a2.05 2.05 0 0 0-2.048-2.049zm.573 14.144c-.203-.127-1.412-1.254-2.686-2.504s-2.32-2.28-2.327-2.288c-.006-.008-.957.84-2.113 1.885-1.155 1.044-2.487 1.898-2.958 1.898-.471 0-1.752-.811-2.846-1.801-1.094-.99-1.995-1.794-2.001-1.785-.007.009-1.022.994-2.257 2.189-1.234 1.196-2.4 2.278-2.591 2.405s.441-1.252 1.406-3.063a821.757 821.757 0 0 1 1.768-3.317c.009-.012-.811-1.268-1.821-2.79-1.011-1.521-1.671-2.663-1.468-2.536.204.127 2.328 2.018 4.721 4.202s4.719 3.971 5.168 3.971c.45 0 2.781-1.787 5.18-3.971 2.398-2.185 4.518-4.075 4.709-4.202.19-.127-.443.954-1.41 2.403-.966 1.448-1.75 2.642-1.744 2.651.007.01.829 1.563 1.826 3.45.997 1.89 1.647 3.33 1.444 3.203z"/></g><g fill="#FFF"><path d="M140 56c-15.439 0-28-12.561-28-28s12.561-28 28-28 28 12.561 28 28-12.561 28-28 28zm0-54c-14.337 0-26 11.663-26 26s11.663 26 26 26 26-11.663 26-26-11.663-26-26-26z"/><path d="M146.286 29.303v-4.668h-4.67v-1.86c0-.752.481-1.254.896-1.254h3.774v-4.669h-3.774c-2.896 0-5.253 2.826-5.253 5.962v1.821h-3.422v4.668h3.422v10.58h4.357v-10.58h4.67z"/></g><g fill="#FFF"><path d="M28 56C12.561 56 0 68.561 0 84s12.561 28 28 28 28-12.561 28-28-12.561-28-28-28zm11.567 34.227a2.047 2.047 0 0 1-2.048 2.047H18.525a2.047 2.047 0 0 1-2.048-2.047v-12c0-1.133.917-2.05 2.048-2.05H37.52c1.131 0 2.048.917 2.048 2.05l-.001 12z"/><path d="M34.822 83.669c-.006-.01.778-1.203 1.744-2.651.967-1.449 1.601-2.529 1.41-2.402s-2.311 2.018-4.709 4.201c-2.398 2.185-4.729 3.972-5.18 3.972-.449 0-2.775-1.787-5.168-3.972s-4.517-4.074-4.721-4.201c-.203-.127.457 1.015 1.468 2.535 1.011 1.522 1.83 2.777 1.821 2.791-.009.013-.805 1.504-1.768 3.316-.965 1.813-1.597 3.19-1.406 3.063.191-.127 1.356-1.209 2.591-2.404 1.234-1.195 2.25-2.182 2.257-2.189.006-.009.907.795 2.001 1.785 1.094.99 2.375 1.801 2.846 1.801.471 0 1.803-.854 2.958-1.897 1.156-1.045 2.107-1.894 2.113-1.886.007.009 1.054 1.039 2.327 2.289 1.273 1.25 2.482 2.377 2.686 2.504.204.127-.446-1.313-1.444-3.202a1316.12 1316.12 0 0 0-1.826-3.453z"/></g><path fill="#FFF" d="M140 56c-15.439 0-28 12.561-28 28s12.561 28 28 28 28-12.561 28-28-12.561-28-28-28zm6.286 21.521h-3.774c-.414 0-.896.502-.896 1.254v1.859h4.67v4.668h-4.67v10.58h-4.357v-10.58h-3.422v-4.668h3.422v-1.82c0-3.137 2.356-5.963 5.253-5.963h3.774v4.67z"/><g fill="#FFF"><path d="M84 56c-15.439 0-28-12.561-28-28S68.561 0 84 0s28 12.561 28 28-12.561 28-28 28zm0-54C69.663 2 58 13.663 58 28s11.663 26 26 26 26-11.663 26-26S98.337 2 84 2z"/><path d="M75.223 22.152v.083c0 .872.45 1.466 1.349 1.785l.457.063h.374c.872 0 1.473-.478 1.805-1.432l.042-.415c0-.885-.477-1.487-1.432-1.806l-.623-.062c-.941 0-1.577.45-1.909 1.349l-.063.435zM75.451 25.577h3.548v10.791h-3.548zM84.603 27.071h-.041v-1.494h-3.549v10.791h3.549v-5.562c0-1.064.167-1.708.499-1.93.4-.484.85-.726 1.348-.726h.25c.803 0 1.342.477 1.619 1.432.055.373.082.705.082.996v5.789h3.59v-5.914c0-2.615-.865-4.24-2.594-4.876a5.876 5.876 0 0 0-1.619-.249c-1.286 0-2.331.581-3.134 1.743z"/></g><path fill="#FFF" d="M84 56c-15.439 0-28 12.561-28 28s12.561 28 28 28 28-12.561 28-28-12.561-28-28-28zm-5 36h-3.548V81.209H79V92zm.207-13.717c-.332.955-.934 1.432-1.805 1.432h-.374l-.457-.063c-.899-.318-1.349-.912-1.349-1.784v-.083l.063-.436c.332-.899.968-1.349 1.909-1.349l.623.063c.955.318 1.432.92 1.432 1.806l-.042.414zM91.949 92h-3.59v-5.789c0-.291-.027-.623-.082-.996-.277-.955-.816-1.432-1.619-1.432h-.25c-.498 0-.947.241-1.348.726-.332.222-.499.865-.499 1.93V92h-3.549V81.209h3.549v1.494h.041c.804-1.162 1.849-1.742 3.134-1.742a5.91 5.91 0 0 1 1.619.248c1.729.637 2.594 2.262 2.594 4.877V92z"/></svg>