<?xml version="1.0" encoding="utf-8"?>
<!-- Generator: Adobe Illustrator 18.1.0, SVG Export Plug-In . SVG Version: 6.00 Build 0)  -->
<svg version="1.1" id="Layer_1" xmlns="http://www.w3.org/2000/svg" xmlns:xlink="http://www.w3.org/1999/xlink" x="0px" y="0px"
	 width="540px" height="525px" viewBox="-209 18 540 525" enable-background="new -209 18 540 525" xml:space="preserve">
<path fill="#333333" d="M211,153V48c0-16.6-13.4-30-30-30h-360c-16.6,0-30,13.4-30,30v465c0,16.6,13.4,30,30,30h360
	c16.6,0,30-13.4,30-30V408h-90v30c0,8.3-6.7,15-15,15h-210c-8.3,0-15-6.7-15-15V123c0-8.3,6.7-15,15-15h210c8.3,0,15,6.7,15,15v30
	H211z"/>
<path fill="#333333" d="M83.5,138h-165c-4.1,0-7.5,3.4-7.5,7.5V303c0,4.1,3.4,7.5,7.5,7.5H19.8c2.1,0,3.8,1.7,3.8,3.8v45
	c0,2.1-1.7,3.8-3.8,3.8h-37.6c-2.1,0-3.8-1.7-3.8-3.8v-18.8H-89v75c0,4.1,3.4,7.5,7.5,7.5h165c4.1,0,7.5-3.4,7.5-7.5V258
	c0-4.1-3.4-7.5-7.5-7.5H-17.8c-2.1,0-3.8-1.7-3.8-3.8v-45c0-2.1,1.7-3.8,3.8-3.8h37.5c2.1,0,3.8,1.7,3.8,3.8v18.8H91v-75
	C91,141.4,87.6,138,83.5,138z"/>
<polygon fill="#333333" points="211,318 211,378 121,378 121,183 211,183 211,243 241,243 241,18 331,18 331,543 241,543 241,318 
	"/>
</svg>
