<?xml version="1.0" encoding="utf-8"?>
<!-- Generator: Adobe Illustrator 18.1.0, SVG Export Plug-In . SVG Version: 6.00 Build 0)  -->
<svg version="1.1" id="Layer_1" xmlns="http://www.w3.org/2000/svg" xmlns:xlink="http://www.w3.org/1999/xlink" x="0px" y="0px"
	 width="92px" height="46px" viewBox="-433 258 92 46" enable-background="new -433 258 92 46" xml:space="preserve">
<path fill="#333333" d="M-363.1,258c-7.5,0-14.1,3.7-18.1,9.4V258h-4v16h16.1v-4h-9.6c3.3-5.1,9.1-8.5,15.6-8.5
	c10.3,0,18.6,8.3,18.6,18.5s-8.3,18.5-18.6,18.5c-8.1,0-14.1-4.9-18.2-12c-4.7-8.1-14.4-26.5-29.6-26.5c-12.2,0-22.1,9.9-22.1,22
	s9.9,22,22.1,22c10.1,0,18.6-6.8,21.3-16h-3.7c-2.5,7.3-9.4,12.5-17.6,12.5c-10.3,0-18.6-8.3-18.6-18.5s8.3-18.5,18.6-18.5
	c12.6,0,25.3,22.9,28.6,28l0,0c3.7,7,10.4,10.5,19.1,10.5c12.2,0,22.1-9.9,22.1-22S-350.9,258-363.1,258z"/>
</svg>
