<?xml version="1.0" encoding="utf-8"?>
<!-- Generator: Adobe Illustrator 18.1.0, SVG Export Plug-In . SVG Version: 6.00 Build 0)  -->
<svg version="1.1" id="Layer_1" xmlns="http://www.w3.org/2000/svg" xmlns:xlink="http://www.w3.org/1999/xlink" x="0px" y="0px"
	 width="154.6px" height="78.5px" viewBox="-1608 966 154.6 78.5" enable-background="new -1608 966 154.6 78.5"
	 xml:space="preserve">
<path fill="#333333" d="M-1488.5,997.1c-3.2-3.1-7.2-4.7-11.8-4.7h-32.2v52.1h10.1v-20h22.2c4.6,0,8.6-1.6,11.8-4.8
	c3.2-3.2,4.8-7,4.8-11.3C-1483.7,1004-1485.3,1000.3-1488.5,997.1z M-1495.6,1012.9c-1.3,1.3-2.9,1.9-4.7,1.9h-22.2v-12.7h22.2
	c1.8,0,3.4,0.6,4.7,1.9s1.9,2.7,1.9,4.4C-1493.7,1010.2-1494.3,1011.7-1495.6,1012.9z"/>
<path fill="#333333" d="M-1544.6,996.9v14.2c-3.4-1.5-7.1-2.3-11.2-2.3c-1.2,0-2.3,0.1-3.4,0.2c0-0.2,0-0.4,0-0.6
	c0-4.4-1.6-8.2-4.8-11.3c-3.2-3.1-7.2-4.7-11.8-4.7h-32.2v52.1h10v-20h20.5c-0.1,0.7-0.1,1.4-0.1,2.2c0,5.2,1.9,9.4,5.8,12.7
	c4.1,3.4,9.5,5.1,16.4,5.1c2.1,0,4.3-0.4,6.6-0.9c2-0.5,3.4-1,4.3-1.6v2.5h10.6v-52.1L-1544.6,996.9z M-1575.8,1002.1
	c1.8,0,3.4,0.6,4.7,1.9s1.9,2.7,1.9,4.4c0,1.8-0.6,3.3-1.9,4.5c-1.3,1.3-2.9,1.9-4.7,1.9h-22.2v-12.7 M-1598,1002.1h22.2
	 M-1544.6,1032.7c-2.9,2.2-6.4,3.2-10.5,3.2c-3.4,0-6.2-0.8-8.4-2.3c-2.5-1.7-3.7-4-3.7-7.1c0-3,1.2-5.3,3.6-6.9
	c2.1-1.5,4.9-2.2,8.2-2.2c4.2,0,7.8,1,10.8,3.1V1032.7L-1544.6,1032.7z"/>
<path fill="#333333" d="M-1454.5,1024.4c0.7-3.3,1.1-6.8,1.1-10.3c0-26.6-21.5-48.1-47.9-48.1c-19.1,0-35.5,11.2-43.3,27.4
	c9.7-8.2,22.2-13.2,35.8-13.2C-1482,980.2-1459.7,999.1-1454.5,1024.4z"/>
</svg>
