<?xml version="1.0" encoding="utf-8"?>
<!-- Generator: Adobe Illustrator 18.1.0, SVG Export Plug-In . SVG Version: 6.00 Build 0)  -->
<svg version="1.1" id="Layer_1" xmlns="http://www.w3.org/2000/svg" xmlns:xlink="http://www.w3.org/1999/xlink" x="0px" y="0px"
	 width="21.8px" height="20.4px" viewBox="-468 270.6 21.8 20.4" enable-background="new -468 270.6 21.8 20.4"
	 xml:space="preserve">
<path fill="#333333" d="M-458,280.3l2.9-6.4h3.1c0.6,0,1.2,0.3,0.5,1.7c-0.9,1.9-1.6,3.3-1.6,3.4c-0.4,0.9-1,1.3-1.9,1.3H-458
	L-458,280.3z M-459.7,283.9c0,0,2.8,0,4.8,0c3.1,0,4.7-0.9,6-3.5c0.4-0.8,1.2-2.6,2.1-4.5c1.6-3.7-0.4-5.3-2.5-5.3h-9.2L-468,291h5
	L-459.7,283.9L-459.7,283.9z"/>
</svg>
