<?xml version="1.0" encoding="utf-8"?>
<!-- Generator: Adobe Illustrator 18.1.0, SVG Export Plug-In . SVG Version: 6.00 Build 0)  -->
<svg version="1.1" id="Layer_1" xmlns="http://www.w3.org/2000/svg" xmlns:xlink="http://www.w3.org/1999/xlink" x="0px" y="0px"
	 width="259.3px" height="133.4px" viewBox="-349 214.6 259.3 133.4" enable-background="new -349 214.6 259.3 133.4"
	 xml:space="preserve">
<g id="Layer_1_1_">
</g>
<g id="Layer_2" display="none">
	<polygon display="inline" fill="#FDCD84" points="-1270.8,921.6 -1270.8,894.8 -1264.4,894.8 -1264.4,889.1 -1251.1,889.1 
		-1251.1,894.8 -1245.6,894.8 -1245.6,898.5 -1242.7,898.5 -1242.7,893.7 -1233.7,893.7 -1233.7,898.5 -1227.8,898.5 -1227.8,900.5 
		-1222.4,900.5 -1222.4,896.3 -1216.4,896.3 -1216.4,900.5 -1210.4,900.5 -1210.4,898 -1204.8,898 -1204.8,892.3 -1195.2,892.3 
		-1195.2,897.9 -1189.6,897.9 -1189.6,921.6 	"/>
</g>
<g id="Layer_3" display="none">
	<path display="inline" fill="#F69C64" d="M-1262.2,894.5c0-2.5,2-4.5,4.5-4.5s4.5,2,4.5,4.5H-1262.2z"/>
	
		<line display="inline" fill="none" stroke="#FDCD84" stroke-width="0.5" stroke-miterlimit="10" x1="-1257.7" y1="894.6" x2="-1257.7" y2="889.7"/>
	
		<line display="inline" fill="none" stroke="#FDCD84" stroke-width="0.5" stroke-miterlimit="10" x1="-1257.4" y1="894.5" x2="-1254" y2="891.1"/>
	
		<line display="inline" fill="none" stroke="#FDCD84" stroke-width="0.5" stroke-miterlimit="10" x1="-1257.7" y1="894.6" x2="-1261.4" y2="890.9"/>
	<circle display="inline" fill="#F69C64" cx="-1200.1" cy="896.6" r="2.9"/>
	
		<line display="inline" fill="none" stroke="#FDCD84" stroke-width="0.25" stroke-miterlimit="10" x1="-1200.1" y1="897" x2="-1200.1" y2="894.6"/>
	
		<line display="inline" fill="none" stroke="#FDCD84" stroke-width="0.25" stroke-miterlimit="10" x1="-1200.1" y1="897" x2="-1198.8" y2="895.8"/>
</g>
<g id="Layer_4" display="none">
	<path display="inline" fill="#F69C64" d="M-1223.5,919.3c0-8.1-6.6-14.7-14.7-14.7c-8.1,0-14.7,6.6-14.7,14.7h3.3
		c0-6.3,5.1-11.4,11.4-11.4s11.4,5.1,11.4,11.4H-1223.5z"/>
	<path display="inline" fill="#F69C64" d="M-1208.7,919.3c0-6.9-5.4-14.4-12-14.4v3.8c5.1,0,8.3,5.2,8.3,10.6"/>
	<rect x="-1254.5" y="904.7" display="inline" fill="#F69C64" width="4.2" height="14.7"/>
	<rect x="-1226.7" y="915.7" display="inline" fill="#F69C64" width="16.5" height="3.7"/>
	<rect x="-1240.3" y="895.8" display="inline" fill="#F69C64" width="4.2" height="23.5"/>
</g>
<path fill="#333333" d="M-1204.7,910v19.7c27.6,0,40.6,18.7,45.1,41.2h-63.1c-8.2-32.7-35.2-57.9-68.9-63.5v-49.1h-23.9v48.5
	c-22.8,2.6-42.8,14-56.6,30.8v-29.1h-23.9v83.2h4.5h19.3h0.1v-3.6c1.7-31.7,25.7-57.5,56.6-62v65.6h23.9V927
	c29.8,6.5,52.2,33,52.2,64.7h1h18.2h62.5h13.1h7.9C-1136.7,947.2-1163.2,910-1204.7,910z"/>
</svg>
