<?xml version="1.0" encoding="utf-8"?>
<!-- Generator: Adobe Illustrator 18.1.0, SVG Export Plug-In . SVG Version: 6.00 Build 0)  -->
<svg version="1.1"
	 id="Layer_1" sodipodi:docname="rit_black_no_bar.svg" inkscape:version="0.46" sodipodi:version="0.32" inkscape:output_extension="org.inkscape.output.svg.inkscape" xmlns:cc="http://creativecommons.org/ns#" xmlns:dc="http://purl.org/dc/elements/1.1/" xmlns:xml="http://www.w3.org/XML/1998/namespace" xmlns:sodipodi="http://sodipodi.sourceforge.net/DTD/sodipodi-0.dtd" xmlns:inkscape="http://www.inkscape.org/namespaces/inkscape" xmlns:svg="http://www.w3.org/2000/svg" xmlns:rdf="http://www.w3.org/1999/02/22-rdf-syntax-ns#"
	 xmlns="http://www.w3.org/2000/svg" xmlns:xlink="http://www.w3.org/1999/xlink" x="0px" y="0px" width="158.6px" height="47.2px"
	 viewBox="-800 515.4 158.6 47.2" enable-background="new -800 515.4 158.6 47.2" xml:space="preserve">
<defs>
	
	
		<inkscape:perspective  inkscape:persp3d-origin="306 : 264 : 1" id="perspective20" inkscape:vp_x="0 : 396 : 1" sodipodi:type="inkscape:persp3d" inkscape:vp_z="612 : 396 : 1" inkscape:vp_y="0 : 1000 : 0">
		</inkscape:perspective>
</defs>
<sodipodi:namedview  inkscape:current-layer="Layer_1" inkscape:window-y="-4" inkscape:window-height="737" inkscape:pageopacity="0.0" inkscape:pageshadow="2" inkscape:window-x="-4" inkscape:window-width="1280" inkscape:cx="72.803322" inkscape:cy="46.553971" borderopacity="1.0" objecttolerance="10.0" guidetolerance="10.0" gridtolerance="10.0" inkscape:zoom="5.33" showgrid="false" bordercolor="#666666" pagecolor="#ffffff" id="base">
	</sodipodi:namedview>
<path fill="#222222" d="M-760.1,556.9l-15.1-17.4c7.1-0.6,12.9-4.6,12.9-12.3c0-9.9-8.2-11.8-16.3-11.8c-3,0.1-6.1,0.2-9.1,0.3
	c-4.1-0.1-8.2-0.2-12.3-0.3v1.6c2.3,0,5.3-0.1,6.1,2.4c0.6,1.9,0.6,7.2,0.6,9.5V549c0,2.3,0,7.6-0.6,9.5c-0.8,2.4-3.8,2.4-6.1,2.4
	v1.6c3.6-0.1,7.1-0.2,10.7-0.3c3.4,0.1,6.8,0.2,10.1,0.3v-1.6c-2.3,0-5.2,0.1-6.1-2.4c-0.6-1.9-0.6-7.2-0.6-9.5v-8.3
	c3.8,0,3.5,0.4,5.9,3.1l11.9,14.7l3.4,4.1c1.8-0.1,3.6-0.2,5.4-0.3c2.1,0.1,4.3,0.2,6.4,0.3V561
	C-756.8,560.5-757.8,559.5-760.1,556.9z M-786,538.8v-18.6c0-0.8-0.1-2.1,0.8-2.6c0.6-0.3,3.8-0.1,4.6-0.1c6.4,0,10,4.4,10,10.7
	C-770.6,538.6-777.1,538.8-786,538.8z"/>
<path id="path7" fill="#222222" d="M-725,549.1c0,2.3,0,7.6-0.7,9.5c-0.9,2.4-3.9,2.4-6.1,2.4v1.6c3.6-0.1,7.2-0.2,10.8-0.3
	c3.4,0.1,6.9,0.2,10.3,0.3V561c-2.3,0-5.2,0-6.1-2.4c-0.7-1.9-0.7-7.2-0.7-9.5V529c0-2.3,0-7.6,0.7-9.5c0.9-2.4,3.9-2.4,6.1-2.4
	v-1.6c-3.6,0.1-7.1,0.2-10.8,0.3c-3.4-0.1-6.9-0.2-10.3-0.3v1.6c2.3,0,5.2,0,6.1,2.4c0.7,1.9,0.7,7.2,0.7,9.5V549.1L-725,549.1z"/>
<path id="path9" fill="#222222" d="M-642.1,515.4H-686v11.1h1.6c0.3-8.5,3.7-8.9,10.8-8.9c2.9,0,6-0.2,6,1.9v33.8
	c0,5.3-1,7.3-7.9,7.6v1.6c3.9-0.1,7.6-0.2,11.4-0.3c3.9,0.1,7.9,0.2,11.9,0.3v-1.6c-6.9-0.3-7.9-2.3-7.9-7.6v-33.8
	c0-2.3,4.3-1.9,6.9-1.9c6.7,0,9.4,1.9,9.9,8.9h1.9L-642.1,515.4L-642.1,515.4z"/>
<path id="path11" fill="#222222" d="M-748,539.1c0-1.6,1.3-2.8,2.8-2.8c1.6,0,2.8,1.3,2.8,2.8c0,1.6-1.3,2.8-2.8,2.8
	C-746.7,542-748,540.7-748,539.1L-748,539.1z"/>
<path id="path13" fill="#222222" d="M-700.3,539.1c0-1.6,1.3-2.8,2.8-2.8c1.6,0,2.8,1.3,2.8,2.8c0,1.6-1.3,2.8-2.8,2.8
	C-699.1,542-700.3,540.7-700.3,539.1L-700.3,539.1z"/>
</svg>
