<?xml version="1.0" encoding="utf-8"?>
<!-- Generator: Adobe Illustrator 16.0.0, SVG Export Plug-In . SVG Version: 6.00 Build 0)  -->
<!DOCTYPE svg PUBLIC "-//W3C//DTD SVG 1.1//EN" "http://www.w3.org/Graphics/SVG/1.1/DTD/svg11.dtd">
<svg version="1.1" id="Layer_1" xmlns="http://www.w3.org/2000/svg" xmlns:xlink="http://www.w3.org/1999/xlink" x="0px" y="0px"
	 width="168px" height="112px" viewBox="0 0 168 112" enable-background="new 0 0 168 112" xml:space="preserve">
<g>
	<path fill="#FFFFFF" d="M28,56C12.561,56,0,43.439,0,28S12.561,0,28,0s28,12.561,28,28S43.439,56,28,56z M28,2
		C13.663,2,2,13.663,2,28s11.663,26,26,26s26-11.663,26-26S42.337,2,28,2z"/>
	<path fill="#FFFFFF" d="M37.52,20.177H18.525c-1.131,0-2.048,0.917-2.048,2.049v12c0,1.131,0.917,2.048,2.048,2.048H37.52
		c1.131,0,2.048-0.917,2.048-2.048v-12C39.567,21.094,38.65,20.177,37.52,20.177z M38.093,34.321
		c-0.203-0.127-1.412-1.254-2.686-2.504c-1.274-1.25-2.32-2.28-2.327-2.288c-0.006-0.008-0.957,0.84-2.113,1.885
		c-1.155,1.044-2.487,1.898-2.958,1.898c-0.471,0-1.752-0.811-2.846-1.801c-1.094-0.99-1.995-1.794-2.001-1.785
		c-0.007,0.009-1.022,0.994-2.257,2.189c-1.234,1.196-2.4,2.278-2.591,2.405s0.441-1.252,1.406-3.063
		c0.963-1.812,1.759-3.305,1.768-3.317c0.009-0.012-0.811-1.268-1.821-2.79c-1.011-1.521-1.671-2.663-1.468-2.536
		c0.204,0.127,2.328,2.018,4.721,4.202s4.719,3.971,5.168,3.971c0.45,0,2.781-1.787,5.18-3.971c2.398-2.185,4.518-4.075,4.709-4.202
		c0.19-0.127-0.443,0.954-1.41,2.403c-0.966,1.448-1.75,2.642-1.744,2.651c0.007,0.01,0.829,1.563,1.826,3.45
		C37.646,33.008,38.296,34.448,38.093,34.321z"/>
</g>
<g>
	<path fill="#FFFFFF" d="M140,56c-15.439,0-28-12.561-28-28s12.561-28,28-28s28,12.561,28,28S155.439,56,140,56z M140,2
		c-14.337,0-26,11.663-26,26s11.663,26,26,26s26-11.663,26-26S154.337,2,140,2z"/>
	<path fill="#FFFFFF" d="M146.286,29.303v-4.668h-4.67v-1.86c0-0.752,0.481-1.254,0.896-1.254h3.774v-4.669h-3.774
		c-2.896,0-5.253,2.826-5.253,5.962v1.821h-3.422v4.668h3.422v10.58h4.357v-10.58H146.286z"/>
</g>
<g>
	<path fill="#FFFFFF" d="M28,56C12.561,56,0,68.561,0,84s12.561,28,28,28s28-12.561,28-28S43.439,56,28,56z M39.567,90.227
		c0,1.131-0.917,2.047-2.048,2.047H18.525c-1.131,0-2.048-0.916-2.048-2.047v-12c0-1.133,0.917-2.05,2.048-2.05H37.52
		c1.131,0,2.048,0.917,2.048,2.05L39.567,90.227L39.567,90.227z"/>
	<path fill="#FFFFFF" d="M34.822,83.669c-0.006-0.01,0.778-1.203,1.744-2.651c0.967-1.449,1.601-2.529,1.41-2.402
		s-2.311,2.018-4.709,4.201c-2.398,2.185-4.729,3.972-5.18,3.972c-0.449,0-2.775-1.787-5.168-3.972s-4.517-4.074-4.721-4.201
		c-0.203-0.127,0.457,1.015,1.468,2.535c1.011,1.522,1.83,2.777,1.821,2.791c-0.009,0.013-0.805,1.504-1.768,3.316
		c-0.965,1.813-1.597,3.19-1.406,3.063c0.191-0.127,1.356-1.209,2.591-2.404c1.234-1.195,2.25-2.182,2.257-2.189
		c0.006-0.009,0.907,0.795,2.001,1.785c1.094,0.99,2.375,1.801,2.846,1.801c0.471,0,1.803-0.854,2.958-1.897
		c1.156-1.045,2.107-1.894,2.113-1.886c0.007,0.009,1.054,1.039,2.327,2.289c1.273,1.25,2.482,2.377,2.686,2.504
		c0.204,0.127-0.446-1.313-1.444-3.202C35.651,85.232,34.829,83.68,34.822,83.669z"/>
</g>
<g>
	<path fill="#FFFFFF" d="M140,56c-15.439,0-28,12.561-28,28s12.561,28,28,28s28-12.561,28-28S155.439,56,140,56z M146.286,77.521
		h-3.774c-0.414,0-0.896,0.502-0.896,1.254v1.859h4.67v4.668h-4.67v10.58h-4.357v-10.58h-3.422v-4.668h3.422v-1.82
		c0-3.137,2.356-5.963,5.253-5.963h3.774V77.521z"/>
</g>
<g>
	<path fill="#FFFFFF" d="M84,56c-15.439,0-28-12.561-28-28S68.561,0,84,0c15.439,0,28,12.561,28,28S99.439,56,84,56z M84,2
		C69.663,2,58,13.663,58,28s11.663,26,26,26s26-11.663,26-26S98.337,2,84,2z"/>
	<g>
		<path fill="#FFFFFF" d="M75.223,22.152v0.083c0,0.872,0.45,1.466,1.349,1.785l0.457,0.063h0.374c0.872,0,1.473-0.478,1.805-1.432
			l0.042-0.415c0-0.885-0.477-1.487-1.432-1.806l-0.623-0.062c-0.941,0-1.577,0.45-1.909,1.349L75.223,22.152z"/>
		<rect x="75.451" y="25.577" fill="#FFFFFF" width="3.548" height="10.791"/>
		<path fill="#FFFFFF" d="M84.603,27.071h-0.041v-1.494h-3.549v10.791h3.549v-5.562c0-1.064,0.167-1.708,0.499-1.93
			c0.4-0.484,0.85-0.726,1.348-0.726h0.25c0.803,0,1.342,0.477,1.619,1.432c0.055,0.373,0.082,0.705,0.082,0.996v5.789h3.59v-5.914
			c0-2.615-0.865-4.24-2.594-4.876c-0.58-0.167-1.121-0.249-1.619-0.249C86.451,25.328,85.406,25.909,84.603,27.071z"/>
	</g>
</g>
<path fill="#FFFFFF" d="M84,56c-15.439,0-28,12.561-28,28s12.561,28,28,28c15.439,0,28-12.561,28-28S99.439,56,84,56z M79,92h-3.548
	V81.209H79V92z M79.207,78.283c-0.332,0.955-0.934,1.432-1.805,1.432h-0.374l-0.457-0.063c-0.899-0.318-1.349-0.912-1.349-1.784
	v-0.083l0.063-0.436C75.617,76.45,76.253,76,77.194,76l0.623,0.063c0.955,0.318,1.432,0.92,1.432,1.806L79.207,78.283z M91.949,92
	h-3.59v-5.789c0-0.291-0.027-0.623-0.082-0.996c-0.277-0.955-0.816-1.432-1.619-1.432h-0.25c-0.498,0-0.947,0.241-1.348,0.726
	c-0.332,0.222-0.499,0.865-0.499,1.93V92h-3.549V81.209h3.549v1.494h0.041c0.804-1.162,1.849-1.742,3.134-1.742
	c0.498,0,1.039,0.082,1.619,0.248c1.729,0.637,2.594,2.262,2.594,4.877V92z"/>
</svg>
