<svg xmlns="http://www.w3.org/2000/svg" width="260" height="258.508"><rect width="260" height="258.102" fill="#d83d22" rx="28.467" ry="28.467"/><path fill="#fff" d="M71.453 14.456c-31.783 0-29.758 94.655-12.628 153.085-9.41 18.257-20.854 30.805-33.345 30.805-14.144 0-21.218-8.711-21.218-19.453 0-10.741 8.708-19.448 19.45-19.448 4.734 0 15.916 3.535 19.452 17.68l7.073-10.61c-3.538-17.677-18.771-20.82-26.526-20.82-9.286 0-17.68 3.841-23.711 10.007v46.819c4.471 4.401 12.484 9.578 25.48 9.578 12.307 0 23.764-6.784 34.049-20.168 1.75-2.277 3.46-4.763 5.137-7.413 6.868 16.904 15.272 27.974 24.468 27.974 4.92 0 23.526 3.401 34.398-51.649 7.356 40.983 19.206 51.65 25.721 51.65 10.609 0 10.609-14.145 10.609-14.145-25.347 0-28.264-94.196-28.4-132.559.07-5.143.11-10.456.11-15.968l-14.145-7.031a1080.64 1080.64 0 0 0-.326 21.98c-1.056 42.887-5.525 133.578-24.427 133.578-6.939 0-13.596-13.342-19.045-32.534 16.568-42.024 49.577-151.358-2.176-151.358zm0 14.144c19.908 0 14.91 66.412-2.876 116.155C58.473 95.014 55.97 28.6 71.453 28.6zm155.6 38.943c0 35.362-24.754 127.307-38.898 116.698-20.478-15.357-6.043-96.395-3.815-108.194l-14.17-7.04c-2.63 13.014-20.903 108.877 7.372 125.843 11.127 6.677 21.555 2.137 30.621-8.75a812.523 812.523 0 0 1-9.045 32.087c-23.927 9.195-42.543 23.947-55.892 40.321h21.23c7.653-7.551 16.978-14.54 28.257-20.274a635.895 635.895 0 0 1-7.183 20.274h16.28a702.175 702.175 0 0 0 9.314-27.844c13.918-4.517 30.126-7.258 48.876-7.48V208.48c-15.828-.503-30.35 1.072-43.536 4.29 14.739-51.55 24.732-105.481 24.732-138.156z"/></svg>