<svg xmlns="http://www.w3.org/2000/svg" width="100" height="1540" fill="#333">
  <path d="M95.87 111.95c.62-4.13-9.41-5.95-13.21-7.36-.75-.28-2.6-.7-1-4.4 2.16-5.12 4.42-9.57-25.36-17.64-23.77-6.62-33.22-14.97-40.54-23.72C19.1 68.9 27.06 72.5 35.57 79.25c8.51 6.76 9 10.4 11.5 14.38 5.59 8.9 6.48 10.36 12.02 14.25 6.53 4.21 14.43 1.36 23.09 2.68s15.82 7.75 17.38 10.22c1.82-3.15-2.52-7.7-3.7-8.83zm-5.26-2.27c4.5.66 4.28 1.6 4.33 3.2a16.6 16.6 0 0 0-4.33-3.2zm-46.14-9.17c-1.55-3.48-4.66-7.93-16.85-14.3-5.63-3.06-15.23-7.78-23.87-16.74.78 3.23 4.8 10.34 22.05 19.22 4.78 2.56 12.86 4.96 18.67 11.82m-.77-5.95c-1.48-4.1-4.13-9.37-16.72-17.18C20.85 73.45 11.85 68.5 0 55.9c.85 3.4 4.6 12.23 23.46 23.7 6.2 4.12 14.2 6.65 20.24 14.96m12.42 20.55c-5.7-2.4-6.93-2.9-14.27-4.7-7.33-1.82-14.55-5.6-19.37-11.48 3.4 2.42 10.34 7.3 17.48 6.77-1.09-1.54-3.09-2.75-5.48-3.96 2.7.63 10.86 2.66 21.64 13.37m38.95 2.08c-2.16-.2-5.98-.72-10.76 1.62-4.78 2.35-6.66 2.45-9 2.2.68 1.23 2.08 2.92 6.48 3.22 4.39.3 6.49.43 4.18 5.76.05-1.61-.34-4.72-4.7-4.18-4.36.55-5.38 4.37-.7 6.28-1.52.3-4.74.47-7.05-5.4-1.6.68-4.05 2.04-8.51-1.32 1.55.55 3.48.58 3.48.58-3.96-1.83-7.74-5.25-10.17-8.48 1.92 1.39 4.04 2.77 6.18 3.03-2.53-3-8.39-9.01-15.55-15.2 4.6 2.94 10.17 7.56 19.26 6.53 9.1-1.05 15.22-3.08 26.86 5.36M76.06 491.7a23.97 23.97 0 0 0-19.7 10.22v-10.23h-4.35v17.41h17.52v-4.35H59.1c3.59-5.55 9.9-9.25 16.97-9.25 11.2 0 20.24 9.03 20.24 20.13s-9.03 20.13-20.24 20.13c-8.81 0-15.34-5.33-19.8-13.06-5.12-8.81-15.67-28.83-32.21-28.83A24.03 24.03 0 0 0 0 517.8a24.03 24.03 0 0 0 24.05 23.94c10.99 0 20.24-7.4 23.18-17.41H43.2a20.15 20.15 0 0 1-19.15 13.6A20.18 20.18 0 0 1 3.8 517.8c0-11.1 9.03-20.13 20.24-20.13 13.7 0 27.53 24.91 31.12 30.46 4.02 7.62 11.32 11.43 20.78 11.43A24.03 24.03 0 0 0 100 515.63a23.94 23.94 0 0 0-23.94-23.94zM99.29 716.6a31.06 31.06 0 0 0-30.27-37.77A31.08 31.08 0 0 0 41 696.55a35.8 35.8 0 0 1 58.28 20.05zM0 695.9v33.7h6.47v-12.93h13.26c-.07.45-.07.9-.07 1.42 0 3.37 1.23 6.08 3.76 8.22 2.65 2.2 6.14 3.3 10.6 3.3 1.36 0 2.79-.26 4.27-.59 1.3-.32 2.2-.64 2.78-1.03v1.62h6.86v-33.7l-6.92 2.9v9.2a17.7 17.7 0 0 0-7.25-1.5c-.77 0-1.48.07-2.2.13v-.38c0-2.85-1.03-5.3-3.1-7.31-2.07-2-4.66-3.04-7.63-3.04zm6.47 6.28h14.36c1.16 0 2.2.39 3.04 1.23a3.83 3.83 0 0 1 1.23 2.85c0 1.16-.4 2.13-1.23 2.9a4.15 4.15 0 0 1-3.04 1.24H6.47zm27.55 9.9c2.72 0 5.05.64 6.99 2v7.9a10.87 10.87 0 0 1-6.8 2.06c-2.2 0-4-.51-5.43-1.48a5.17 5.17 0 0 1-2.39-4.6c0-1.94.78-3.43 2.33-4.46 1.36-.97 3.17-1.42 5.3-1.42zm14.82-16.17v33.7h6.53v-12.94h14.36c2.97 0 5.56-1.04 7.63-3.1a10.03 10.03 0 0 0 3.1-7.31 10.65 10.65 0 0 0-10.8-10.35zm6.46 6.27h14.36c1.17 0 2.2.39 3.04 1.23a3.83 3.83 0 0 1 1.23 2.85c0 1.16-.39 2.13-1.23 2.9a4.15 4.15 0 0 1-3.04 1.24H55.3zM54.17 865.33H23.6a1.4 1.4 0 0 0-1.39 1.39v29.16c0 .76.63 1.4 1.4 1.4h18.75c.39 0 .7.3.7.7v8.33a.7.7 0 0 1-.7.7h-6.96a.7.7 0 0 1-.7-.7v-3.48H22.21v13.89c0 .76.63 1.39 1.4 1.39h30.55a1.4 1.4 0 0 0 1.39-1.4v-29.16a1.4 1.4 0 0 0-1.4-1.39H35.42a.7.7 0 0 1-.7-.7v-8.33c0-.4.3-.7.7-.7h6.94c.4 0 .7.3.7.7v3.48h12.5v-13.9a1.4 1.4 0 0 0-1.38-1.38zm23.6 33.33v11.11H61.12v-36.1h16.67v11.1h5.55v-41.66H100v97.22H83.33v-41.67h-5.55zm0-30.55v-19.45a5.55 5.55 0 0 0-5.55-5.55H5.56A5.55 5.55 0 0 0 0 848.66v86.11a5.55 5.55 0 0 0 5.56 5.56h66.66a5.55 5.55 0 0 0 5.56-5.56v-19.44H61.1v5.55a2.77 2.77 0 0 1-2.78 2.78H19.44a2.77 2.77 0 0 1-2.77-2.78v-58.33a2.77 2.77 0 0 1 2.77-2.78h38.9a2.77 2.77 0 0 1 2.77 2.78v5.56h16.67zM43.62 282.39L0 376.05h22.96l15.15-32.6h22.04c14.23 0 21.58-4.13 27.55-16.07 1.83-3.67 5.5-11.94 9.64-20.66 7.34-16.99-1.84-24.33-11.48-24.33zm15.6 15.15h14.24c2.76 0 5.51 1.38 2.3 7.8-4.13 8.73-7.35 15.16-7.35 15.61-1.83 4.14-4.59 5.97-8.72 5.97H45.9zM7.39 1029.22a7.28 7.28 0 0 0-7.39 7.16v85.67c0 3.96 3.3 7.17 7.39 7.17h85.23a7.28 7.28 0 0 0 7.38-7.17v-85.67c0-3.95-3.3-7.16-7.38-7.16zM22.86 1046c5.17 0 8.35 3.37 8.45 7.8 0 4.33-3.28 7.8-8.55 7.8h-.1c-5.06 0-8.35-3.47-8.35-7.8 0-4.43 3.38-7.8 8.55-7.8zm44.53 20.7c9.94 0 17.4 6.45 17.4 20.33v25.89H69.67v-24.16c0-6.07-2.19-10.21-7.65-10.21-4.18 0-6.66 2.8-7.75 5.49-.4.96-.5 2.31-.5 3.66v25.21h-15.1s.2-40.91 0-45.14h15.1v6.4c2-3.08 5.59-7.47 13.6-7.47zm-52.18 1.07h15.1v45.15h-15.1zM54.4 1251.98c.64-1.7 2.78-1.7 4.5-1.7h.32v-2.33s-6.67.15-8.72.15c-2.04 0-8.34-.15-8.34-.15v2.33h.32c1.71 0 3.85 0 4.5 1.7a32.68 32.68 0 0 1 .49 7.3v14.89a32.68 32.68 0 0 1-.53 7.29c-.64 1.7-2.78 1.7-4.5 1.7h-.32v2.32s5.4-.24 8.35-.24c3.4 0 8.7.24 8.7.24v-2.33h-.28c-1.71 0-3.85 0-4.5-1.7a31.8 31.8 0 0 1-.55-7.28v-14.9a31.8 31.8 0 0 1 .56-7.29zm9.87-3.98v9.72h2.32v-.3c.2-6.33 2.63-6.6 8.08-6.6h.58c1.35 0 2.63 0 3.14.48a.93.93 0 0 1 .24.71v25.55c0 3.8-.53 5.37-5.88 5.6h-.3v2.32s6.24-.24 9.84-.24c2.76 0 8.9.24 8.9.24v-2.3h-.31c-5.32-.22-5.83-1.78-5.83-5.59v-25.55a.81.81 0 0 1 .25-.63c.62-.62 2.32-.59 3.67-.57h.75c5.35 0 7.06 1.5 7.38 6.61v.29h2.3V1248s-13.53.09-17.56.09c-4.02 0-17.57-.1-17.57-.1zm-27.32 35.16a6.66 6.66 0 0 1-5.25-2.71l-11.08-12.72c5.8-.8 9.43-4.69 9.43-10.26a8.2 8.2 0 0 0-4.17-7.77 18.38 18.38 0 0 0-8.91-1.73c-1.17.01-3.98.12-7.08.12s-9.89-.14-9.89-.14v2.33h.47c1.75 0 3.75 0 4.28 1.69a33.82 33.82 0 0 1 .48 6.9v15.3a53.87 53.87 0 0 1-.22 6 7.18 7.18 0 0 1-.26 1.32c-.54 1.67-2.7 1.67-4.43 1.67H0v2.34s5.2-.24 8.67-.24c3 0 8.18.22 8.18.24v-2.36h-.47c-1.74 0-3.7 0-4.28-1.67a7.03 7.03 0 0 1-.27-1.3 49.45 49.45 0 0 1-.23-5.6v-6.25c2.08 0 2.26.22 3.33 1.5.2.24.42.51.69.81l9.3 11.49 2.72 3.36s3-.13 4.42-.13c2.12 0 5.23.13 5.23.13v-2.3l-.34-.02zm-25.35-17.4v-13.63c0-.54 0-1.28.42-1.5a30.51 30.51 0 0 1 3.5 0c4.76 0 7.52 2.8 7.52 7.63 0 3.54-.93 5.57-3 6.59-2.08 1.02-8.44.91-8.44.91zM59.26 1362a28.16 28.16 0 0 0-22.91 11.76 14.9 14.9 0 0 0-9.17-3.14c-8.29 0-15 6.74-15 15.06 0 1.83.33 3.61.92 5.27A19.94 19.94 0 0 0 0 1409.62a19.8 19.8 0 0 0 13.06 18.68c-.34 1.74-.5 3.56-.5 5.39A28.27 28.27 0 0 0 40.73 1462c9.13 0 17.59-4.41 22.87-11.8a14.73 14.73 0 0 0 9.17 3.23c8.29 0 15-6.75 15-15.07 0-1.83-.33-3.61-.92-5.26a19.98 19.98 0 0 0 13.14-18.68c0-8.4-5.2-15.79-13.02-18.63A28.35 28.35 0 0 0 59.25 1362zm-.21 3.99a24.76 24.76 0 0 1 24.68 24.79c0 1.7-.13 3.27-.47 4.88L61.2 1415.1l-21.9-10.02-4.26-9.17 3.68-19.14a24.58 24.58 0 0 1 20.33-10.78zm-31.4 8.36c2.61 0 5.15.85 7.18 2.42l-3.3 17.1-15-3.56a11.87 11.87 0 0 1 11.12-15.96zm-12.43 19.57l16.48 3.9 3.85 8.28-21.05 19.1a16.65 16.65 0 0 1-10.65-15.53c0-7.1 4.69-13.54 11.37-15.75zm70.24 4.92a16.6 16.6 0 0 1 10.65 15.5c0 7.12-4.65 13.58-11.37 15.78l-16.48-3.86-4.35-8.44zm-47.25 9.98l21.98 10.06 4.86 9.33-3.64 19.06a24.72 24.72 0 0 1-20.45 10.87 24.82 24.82 0 0 1-24.77-24.83c0-1.7.12-3.36.46-4.97zm30.3 21.39l14.96 3.52a11.87 11.87 0 0 1-11.12 16c-2.57 0-5.06-.89-7.13-2.46z"/>
</svg>
