<svg xmlns="http://www.w3.org/2000/svg" width="100" height="1650" fill="#333">
  <path d="m95.87,111.95c0.62,-4.13 -9.41,-5.95 -13.21,-7.36c-0.75,-0.28 -2.6,-0.7 -1,-4.4c2.16,-5.12 4.42,-9.57 -25.36,-17.64c-23.77,-6.62 -33.22,-14.97 -40.54,-23.72c3.34,10.07 11.3,13.67 19.81,20.42c8.51,6.76 9,10.4 11.5,14.38c5.59,8.9 6.48,10.36 12.02,14.25c6.53,4.21 14.43,1.36 23.09,2.68s15.82,7.75 17.38,10.22c1.82,-3.15 -2.52,-7.7 -3.7,-8.83l0.01,0zm-5.26,-2.27c4.5,0.66 4.28,1.6 4.33,3.2a16.6,16.6 0 0 0 -4.33,-3.2zm-46.14,-9.17c-1.55,-3.48 -4.66,-7.93 -16.85,-14.3c-5.63,-3.06 -15.23,-7.78 -23.87,-16.74c0.78,3.23 4.8,10.34 22.05,19.22c4.78,2.56 12.86,4.96 18.67,11.82m-0.77,-5.95c-1.48,-4.1 -4.13,-9.37 -16.72,-17.18c-6.13,-3.93 -15.13,-8.88 -26.98,-21.48c0.85,3.4 4.6,12.23 23.46,23.7c6.2,4.12 14.2,6.65 20.24,14.96m12.42,20.55c-5.7,-2.4 -6.93,-2.9 -14.27,-4.7c-7.33,-1.82 -14.55,-5.6 -19.37,-11.48c3.4,2.42 10.34,7.3 17.48,6.77c-1.09,-1.54 -3.09,-2.75 -5.48,-3.96c2.7,0.63 10.86,2.66 21.64,13.37m38.95,2.08c-2.16,-0.2 -5.98,-0.72 -10.76,1.62c-4.78,2.35 -6.66,2.45 -9,2.2c0.68,1.23 2.08,2.92 6.48,3.22c4.39,0.3 6.49,0.43 4.18,5.76c0.05,-1.61 -0.34,-4.72 -4.7,-4.18c-4.36,0.55 -5.38,4.37 -0.7,6.28c-1.52,0.3 -4.74,0.47 -7.05,-5.4c-1.6,0.68 -4.05,2.04 -8.51,-1.32c1.55,0.55 3.48,0.58 3.48,0.58c-3.96,-1.83 -7.74,-5.25 -10.17,-8.48c1.92,1.39 4.04,2.77 6.18,3.03c-2.53,-3 -8.39,-9.01 -15.55,-15.2c4.6,2.94 10.17,7.56 19.26,6.53c9.1,-1.05 15.22,-3.08 26.86,5.36m-19.01,374.51a23.97,23.97 0 0 0 -19.7,10.22l0,-10.23l-4.35,0l0,17.41l17.52,0l0,-4.35l-10.43,0c3.59,-5.55 9.9,-9.25 16.97,-9.25c11.2,0 20.24,9.03 20.24,20.13s-9.03,20.13 -20.24,20.13c-8.81,0 -15.34,-5.33 -19.8,-13.06c-5.12,-8.81 -15.67,-28.83 -32.21,-28.83a24.03,24.03 0 0 0 -24.06,23.93a24.03,24.03 0 0 0 24.05,23.94c10.99,0 20.24,-7.4 23.18,-17.41l-4.03,0a20.15,20.15 0 0 1 -19.15,13.6a20.18,20.18 0 0 1 -20.25,-20.13c0,-11.1 9.03,-20.13 20.24,-20.13c13.7,0 27.53,24.91 31.12,30.46c4.02,7.62 11.32,11.43 20.78,11.43a24.03,24.03 0 0 0 24.06,-23.93a23.94,23.94 0 0 0 -23.94,-23.94l0,0.01zm23.23,224.9a31.06,31.06 0 0 0 -30.27,-37.77a31.08,31.08 0 0 0 -28.02,17.72a35.8,35.8 0 0 1 58.28,20.05l0.01,0zm-99.29,-20.7l0,33.7l6.47,0l0,-12.93l13.26,0c-0.07,0.45 -0.07,0.9 -0.07,1.42c0,3.37 1.23,6.08 3.76,8.22c2.65,2.2 6.14,3.3 10.6,3.3c1.36,0 2.79,-0.26 4.27,-0.59c1.3,-0.32 2.2,-0.64 2.78,-1.03l0,1.62l6.86,0l0,-33.7l-6.92,2.9l0,9.2a17.7,17.7 0 0 0 -7.25,-1.5c-0.77,0 -1.48,0.07 -2.2,0.13l0,-0.38c0,-2.85 -1.03,-5.3 -3.1,-7.31c-2.07,-2 -4.66,-3.04 -7.63,-3.04l-20.83,-0.01zm6.47,6.28l14.36,0c1.16,0 2.2,0.39 3.04,1.23a3.83,3.83 0 0 1 1.23,2.85c0,1.16 -0.4,2.13 -1.23,2.9a4.15,4.15 0 0 1 -3.04,1.24l-14.36,0l0,-8.22zm27.55,9.9c2.72,0 5.05,0.64 6.99,2l0,7.9a10.87,10.87 0 0 1 -6.8,2.06c-2.2,0 -4,-0.51 -5.43,-1.48a5.17,5.17 0 0 1 -2.39,-4.6c0,-1.94 0.78,-3.43 2.33,-4.46c1.36,-0.97 3.17,-1.42 5.3,-1.42zm14.82,-16.17l0,33.7l6.53,0l0,-12.94l14.36,0c2.97,0 5.56,-1.04 7.63,-3.1a10.03,10.03 0 0 0 3.1,-7.31a10.65,10.65 0 0 0 -10.8,-10.35l-20.82,0zm6.46,6.27l14.36,0c1.17,0 2.2,0.39 3.04,1.23a3.83,3.83 0 0 1 1.23,2.85c0,1.16 -0.39,2.13 -1.23,2.9a4.15,4.15 0 0 1 -3.04,1.24l-14.36,0l0,-8.22zm-1.13,163.15l-30.57,0a1.4,1.4 0 0 0 -1.39,1.39l0,29.16c0,0.76 0.63,1.4 1.4,1.4l18.75,0c0.39,0 0.7,0.3 0.7,0.7l0,8.33a0.7,0.7 0 0 1 -0.7,0.7l-6.96,0a0.7,0.7 0 0 1 -0.7,-0.7l0,-3.48l-12.49,0l0,13.89c0,0.76 0.63,1.39 1.4,1.39l30.55,0a1.4,1.4 0 0 0 1.39,-1.4l0,-29.16a1.4,1.4 0 0 0 -1.4,-1.39l-18.73,0a0.7,0.7 0 0 1 -0.7,-0.7l0,-8.33c0,-0.4 0.3,-0.7 0.7,-0.7l6.94,0c0.4,0 0.7,0.3 0.7,0.7l0,3.48l12.5,0l0,-13.9a1.4,1.4 0 0 0 -1.38,-1.38l-0.01,0zm23.6,33.33l0,11.11l-16.65,0l0,-36.1l16.67,0l0,11.1l5.55,0l0,-41.66l16.66,0l0,97.22l-16.67,0l0,-41.67l-5.55,0l-0.01,0zm0,-30.55l0,-19.45a5.55,5.55 0 0 0 -5.55,-5.55l-66.66,0a5.55,5.55 0 0 0 -5.56,5.55l0,86.11a5.55,5.55 0 0 0 5.56,5.56l66.66,0a5.55,5.55 0 0 0 5.56,-5.56l0,-19.44l-16.68,0l0,5.55a2.77,2.77 0 0 1 -2.78,2.78l-38.88,0a2.77,2.77 0 0 1 -2.77,-2.78l0,-58.33a2.77,2.77 0 0 1 2.77,-2.78l38.9,0a2.77,2.77 0 0 1 2.77,2.78l0,5.56l16.67,0l-0.01,0zm-34.15,-585.72l-43.62,93.66l22.96,0l15.15,-32.6l22.04,0c14.23,0 21.58,-4.13 27.55,-16.07c1.83,-3.67 5.5,-11.94 9.64,-20.66c7.34,-16.99 -1.84,-24.33 -11.48,-24.33l-42.24,0zm15.6,15.15l14.24,0c2.76,0 5.51,1.38 2.3,7.8c-4.13,8.73 -7.35,15.16 -7.35,15.61c-1.83,4.14 -4.59,5.97 -8.72,5.97l-13.79,0l13.32,-29.38zm-51.83,731.68a7.28,7.28 0 0 0 -7.39,7.16l0,85.67c0,3.96 3.3,7.17 7.39,7.17l85.23,0a7.28,7.28 0 0 0 7.38,-7.17l0,-85.67c0,-3.95 -3.3,-7.16 -7.38,-7.16l-85.23,0zm15.47,16.78c5.17,0 8.35,3.37 8.45,7.8c0,4.33 -3.28,7.8 -8.55,7.8l-0.1,0c-5.06,0 -8.35,-3.47 -8.35,-7.8c0,-4.43 3.38,-7.8 8.55,-7.8zm44.53,20.7c9.94,0 17.4,6.45 17.4,20.33l0,25.89l-15.12,0l0,-24.16c0,-6.07 -2.19,-10.21 -7.65,-10.21c-4.18,0 -6.66,2.8 -7.75,5.49l-0.5,3.66l0,25.21l-15.1,0s0.2,-40.91 0,-45.14l15.1,0l0,6.4c2,-3.08 5.59,-7.47 13.6,-7.47l0.02,0zm-52.18,1.07l15.1,0l0,45.15l-15.1,0l0,-45.15zm39.19,184.21c0.64,-1.7 2.78,-1.7 4.5,-1.7l0.32,0l0,-2.33s-6.67,0.15 -8.72,0.15c-2.04,0 -8.34,-0.15 -8.34,-0.15l0,2.33l0.32,0c1.71,0 3.85,0 4.5,1.7a32.68,32.68 0 0 1 0.49,7.3l0,14.89a32.68,32.68 0 0 1 -0.53,7.29c-0.64,1.7 -2.78,1.7 -4.5,1.7l-0.32,0l0,2.32s5.4,-0.24 8.35,-0.24c3.4,0 8.7,0.24 8.7,0.24l0,-2.33l-0.28,0c-1.71,0 -3.85,0 -4.5,-1.7a31.8,31.8 0 0 1 -0.55,-7.28l0,-14.9a31.8,31.8 0 0 1 0.56,-7.29zm9.87,-3.98l0,9.72l2.32,0l0,-0.3c0.2,-6.33 2.63,-6.6 8.08,-6.6l0.58,0c1.35,0 2.63,0 3.14,0.48a0.93,0.93 0 0 1 0.24,0.71l0,25.55c0,3.8 -0.53,5.37 -5.88,5.6l-0.3,0l0,2.32s6.24,-0.24 9.84,-0.24c2.76,0 8.9,0.24 8.9,0.24l0,-2.3l-0.31,0c-5.32,-0.22 -5.83,-1.78 -5.83,-5.59l0,-25.55a0.81,0.81 0 0 1 0.25,-0.63c0.62,-0.62 2.32,-0.59 3.67,-0.57l0.75,0c5.35,0 7.06,1.5 7.38,6.61l0,0.29l2.3,0l0,-9.74s-13.53,0.09 -17.56,0.09c-4.02,0 -17.57,-0.1 -17.57,-0.1l0,0.01zm-27.32,35.16a6.66,6.66 0 0 1 -5.25,-2.71l-11.08,-12.72c5.8,-0.8 9.43,-4.69 9.43,-10.26a8.2,8.2 0 0 0 -4.17,-7.77a18.38,18.38 0 0 0 -8.91,-1.73c-1.17,0.01 -3.98,0.12 -7.08,0.12s-9.89,-0.14 -9.89,-0.14l0,2.33l0.47,0c1.75,0 3.75,0 4.28,1.69a33.82,33.82 0 0 1 0.48,6.9l0,15.3a53.87,53.87 0 0 1 -0.22,6a7.18,7.18 0 0 1 -0.26,1.32c-0.54,1.67 -2.7,1.67 -4.43,1.67l-0.32,0l0,2.34s5.2,-0.24 8.67,-0.24c3,0 8.18,0.22 8.18,0.24l0,-2.36l-0.47,0c-1.74,0 -3.7,0 -4.28,-1.67a7.03,7.03 0 0 1 -0.27,-1.3a49.45,49.45 0 0 1 -0.23,-5.6l0,-6.25c2.08,0 2.26,0.22 3.33,1.5c0.2,0.24 0.42,0.51 0.69,0.81l9.3,11.49l2.72,3.36s3,-0.13 4.42,-0.13c2.12,0 5.23,0.13 5.23,0.13l0,-2.3l-0.34,-0.02zm-25.35,-17.4l0,-13.63c0,-0.54 0,-1.28 0.42,-1.5a30.51,30.51 0 0 1 3.5,0c4.76,0 7.52,2.8 7.52,7.63c0,3.54 -0.93,5.57 -3,6.59c-2.08,1.02 -8.44,0.91 -8.44,0.91zm47.66,96.24a28.16,28.16 0 0 0 -22.91,11.76a14.9,14.9 0 0 0 -9.17,-3.14c-8.29,0 -15,6.74 -15,15.06c0,1.83 0.33,3.61 0.92,5.27a19.94,19.94 0 0 0 -13.1,18.67a19.8,19.8 0 0 0 13.06,18.68c-0.34,1.74 -0.5,3.56 -0.5,5.39a28.27,28.27 0 0 0 28.17,28.31c9.13,0 17.59,-4.41 22.87,-11.8a14.73,14.73 0 0 0 9.17,3.23c8.29,0 15,-6.75 15,-15.07c0,-1.83 -0.33,-3.61 -0.92,-5.26a19.98,19.98 0 0 0 13.14,-18.68c0,-8.4 -5.2,-15.79 -13.02,-18.63a28.35,28.35 0 0 0 -27.72,-33.79l0.01,0zm-0.21,3.99a24.76,24.76 0 0 1 24.68,24.79c0,1.7 -0.13,3.27 -0.47,4.88l-22.06,19.44l-21.9,-10.02l-4.26,-9.17l3.68,-19.14a24.58,24.58 0 0 1 20.33,-10.78zm-31.4,8.36c2.61,0 5.15,0.85 7.18,2.42l-3.3,17.1l-15,-3.56a11.87,11.87 0 0 1 11.12,-15.96zm-12.43,19.57l16.48,3.9l3.85,8.28l-21.05,19.1a16.65,16.65 0 0 1 -10.65,-15.53c0,-7.1 4.69,-13.54 11.37,-15.75zm70.24,4.92a16.6,16.6 0 0 1 10.65,15.5c0,7.12 -4.65,13.58 -11.37,15.78l-16.48,-3.86l-4.35,-8.44l21.55,-18.98zm-47.25,9.98l21.98,10.06l4.86,9.33l-3.64,19.06a24.72,24.72 0 0 1 -20.45,10.87a24.82,24.82 0 0 1 -24.77,-24.83c0,-1.7 0.12,-3.36 0.46,-4.97l21.56,-19.52zm30.3,21.39l14.96,3.52a11.87,11.87 0 0 1 -11.12,16c-2.57,0 -5.06,-0.89 -7.13,-2.46l3.29,-17.06z"/>
  <path d="m0,1611.74879l0,-26.3598l6.68511,0l0,2.24773c2.02579,-1.63472 4.45674,-2.65641 7.29284,-2.65641c3.64642,0 6.88769,1.63472 9.11606,4.29113c1.62063,2.0434 2.83611,4.69981 2.83611,9.19528l0,13.48641l-7.09027,0l0,-14.09943c0,-2.65641 -0.60774,-4.08679 -1.62063,-4.90415c-1.0129,-1.0217 -2.22837,-1.63472 -4.05158,-1.63472c-2.83611,0 -5.26705,1.83906 -6.48253,3.26943l0,17.16452l-6.68511,0z" />
   <path d="m43.95965,1584.78006c-8.50832,0 -15.19343,6.7432 -15.19343,15.32546c0,4.49547 1.82321,8.58226 4.65932,11.44301c1.0129,1.0217 2.83611,1.0217 4.05158,0.20434c1.62063,-1.43038 4.05158,-2.24773 6.48253,-2.24773c2.63353,0 4.65932,0.81736 6.48253,2.24773c1.21547,1.0217 2.83611,0.81736 4.05158,-0.40868c2.83611,-2.86075 4.65932,-6.7432 4.65932,-11.23867c-0.20258,-8.37792 -6.88769,-15.32546 -15.19343,-15.32546m-0.20258,23.2947c-4.65932,0 -7.698,-3.47377 -7.698,-7.7649s3.03869,-7.7649 7.698,-7.7649s7.698,3.47377 7.698,7.7649s-3.03869,7.7649 -7.698,7.7649" />
   <polygon points="57.636089326551954,1585.947265625 64.52378082435469,1585.947265625 70.19598388831953,1601.068359375 75.8681945816789,1585.947265625 81.74301147621016,1585.947265625 87.21262359779219,1601.068359375 92.88484954994063,1585.947265625 99.97511291663984,1585.947265625 89.64356994788984,1612.3070068359375 84.37650299232344,1612.3070068359375 78.70432281654219,1597.39013671875 73.23466491859297,1612.3070068359375 67.96762085121016,1612.3070068359375 "/>
</svg>