<svg xmlns="http://www.w3.org/2000/svg" width="100" height="1360.4501" fill="#333"><path stroke-width="1.46037161" d="M95.867566 111.89575c.62503-4.12993-9.410645-5.94517-13.210535-7.35735-.74625-.27747-2.59362-.69514-.99305-4.39864 2.15989-5.115676 4.41178-9.565426-25.36373-17.644206-23.770471-6.61548-33.223461-14.96881-40.537001-23.7106 3.33987 10.06197 11.30328 13.6647 19.8114 20.41892 8.508131 6.75714 8.991511 10.38763 11.497511 14.38028 5.58446 8.892196 6.47383 10.359876 12.01448 14.243006 6.52932 4.21755 14.42847 1.36252 23.09139 2.68416 8.66293 1.32164 15.824595 7.74581 17.382805 10.21968 1.818174-3.15294-2.52206-7.69762-3.69327-8.83525zm-5.260265-2.26796c4.508175.66155 4.280355 1.59327 4.328545 3.1953-1.91893-2.03722-4.328545-3.1953-4.328545-3.1953zm-46.1346-9.16675c-1.54946-3.477136-4.661511-7.934196-16.855611-14.299956-5.62243-3.06532-15.23022-7.7794-23.8697802-16.74316.78422 3.23472 4.7944 10.34527 22.0516202 19.22287 4.78125 2.56003 12.85857 4.96381 18.673771 11.820246m-.77692-5.952466c-1.47206-4.10657-4.125551-9.36537-16.713951-17.17543C20.85119 73.397434 11.84946 68.452624 0 55.848154c.84701 3.39828 4.5914098 12.23207 23.45941 23.70475 6.19928 4.11387 14.19919 6.65199 20.236371 14.95567M56.117701 115.056c-5.70713-2.40524-6.92946-2.89008-14.266371-4.70386-7.33545-1.81378-14.5526-5.58738-19.37621-11.477056 3.40121 2.424206 10.34819 7.301856 17.48065 6.774656-1.08506-1.54361-3.08431-2.74842-5.47347-3.96199 2.70314.62942 10.862241 2.6608 21.635401 13.36825m38.948115 2.08541c-2.15405-.20592-5.975845-.72289-10.755635 1.61955-4.77834 2.34536-6.66222 2.44758-9.00612 2.20516.6893 1.22671 2.08687 2.90906 6.48113 3.21136 4.39426.29937 6.49281.43373 4.18251 5.75824.0511-1.60933-.33297-4.717-4.6951-4.17228-4.36067.54472-5.38001 4.36359-.70098 6.2723-1.5217.29645-4.7462.4717-7.04775-5.38731-1.59619.67323-4.05545 2.02699-8.51397-1.32602 1.55092.5491 3.47569.58123 3.47569.58123-3.96053-1.83715-7.73997-5.25442-10.16419-8.48768 1.91893 1.39173 4.04085 2.77762 6.18321 3.03757-2.53082-3.00691-8.38983-9.0178-15.55733-15.19517 4.60747 2.92951 10.17002 7.55597 19.26668 6.51764 9.10103-1.04124 15.21707-3.07116 26.851855 5.36541"/><path d="M76.06094 491.64114c-8.16105 0-15.34276 4.0261-19.69532 10.2285v-10.2285h-4.35256v17.4102H69.5321v-4.3525H59.08597c3.59086-5.5496 9.90207-9.2492 16.97497-9.2492 11.20783 0 20.23938 9.0315 20.23938 20.1306 0 11.099-9.03155 20.1305-20.23938 20.1305-8.81394 0-15.34276-5.3318-19.80414-13.0576-5.11426-8.814-15.66921-28.8357-32.20893-28.8357C10.77258 493.81744 0 504.58994 0 517.75644s10.77258 23.9391 24.04787 23.9391c10.99021 0 20.23939-7.3994 23.17737-17.4102h-4.02611c-2.72035 7.9434-10.22851 13.6017-19.15126 13.6017-11.20783 0-20.23938-9.0315-20.23938-20.1306 0-11.099 9.03155-20.1306 20.23938-20.1306 13.71056 0 27.52994 24.9184 31.12079 30.4679 4.02611 7.617 11.31665 11.4255 20.78347 11.4255 13.27529 0 24.04787-10.7726 24.04787-23.9391 0-13.1664-10.66377-23.939-23.93906-23.939z"/><path d="M99.28848 716.55477c.45278-2.13454.71151-4.39845.71151-6.66235 0-17.20569-13.90685-31.11254-30.98317-31.11254-12.35446 0-22.96247 7.2445-28.00775 17.72315 6.27426-5.30401 14.35963-8.53816 23.15653-8.53816 17.33505 0 31.75937 12.2251 35.12289 28.5899zM0 695.85563v33.70117h6.46875v-12.9375h13.25976c-.0647.45278-.0644.90637-.0644 1.42383 0 3.36351 1.22932 6.0803 3.75196 8.21484 2.652 2.19923 6.14429 3.29883 10.60742 3.29883 1.35834 0 2.78182-.25862 4.26953-.58203 1.29366-.32342 2.1991-.64706 2.78125-1.03516v1.61719h6.85547v-33.70117l-6.91992 2.91211v9.18359c-2.19923-.97024-4.59409-1.48633-7.2461-1.48633-.7762 0-1.4877.0642-2.19922.12891v-.38867c0-2.84605-1.03365-5.30343-3.10351-7.3086-2.06986-2.00517-4.65739-3.04101-7.63282-3.04101zm6.46875 6.27539h14.35937c1.1643 0 2.19818.38763 3.03906 1.22851.84088.84089 1.23047 1.7461 1.23047 2.84571 0 1.1643-.38959 2.13396-1.23047 2.91015-.84088.84089-1.87476 1.23047-3.03906 1.23047H6.46875zm27.55468 9.89648c2.71669 0 5.04584.64557 6.98633 2.00391v7.89258c-1.87581 1.42302-4.14096 2.06836-6.79297 2.06836-2.19922 0-4.01057-.51609-5.43359-1.48633-1.61708-1.09961-2.39258-2.58858-2.39258-4.59375 0-1.94049.77574-3.42797 2.32813-4.46289 1.35834-.97025 3.17014-1.42188 5.30468-1.42188zm14.8125-16.17187v33.70117h6.53321v-12.9375h14.35937c2.97543 0 5.56295-1.03561 7.63281-3.10547 2.06987-2.06986 3.10352-4.52722 3.10352-7.30859-.0647-2.84605-1.09811-5.23873-3.16797-7.3086-2.06986-2.00517-4.65739-3.04101-7.63281-3.04101zm6.46875 6.27539h14.35938c1.1643 0 2.19818.38763 3.03906 1.22851.84088.84089 1.23047 1.7461 1.23047 2.84571 0 1.1643-.38959 2.13396-1.23047 2.91015-.84088.84088-1.87476 1.23047-3.03906 1.23047H55.30468z"/><path d="M54.16666 865.27945H23.61111c-.75926 0-1.38889.62963-1.38889 1.38889v29.16667c0 .75926.62963 1.38889 1.38889 1.38889h18.75925c.38889 0 .7037.31481.7037.7037v8.33333c0 .38889-.31481.70371-.7037.70371h-6.96297c-.38888 0-.7037-.31482-.7037-.70371v-3.48148H22.22221v13.88889c0 .75926.62963 1.38889 1.38889 1.38889h30.55555c.75927 0 1.3889-.62963 1.3889-1.38889v-29.16667c0-.75926-.62963-1.38889-1.3889-1.38889H35.4074c-.38888 0-.7037-.31481-.7037-.7037v-8.33333c0-.38889.31482-.70371.7037-.70371h6.94445c.38888 0 .7037.31482.7037.70371v3.48148h12.5v-13.88889c0-.75926-.62963-1.38889-1.3889-1.38889zm23.61112 33.33334v11.11111H61.11111v-36.11111h16.66667v11.11111h5.55555v-41.66666H100v97.22221H83.33333V898.6128h-5.55555zm-.00001-30.55557v-19.44444c0-3.07407-2.48149-5.55555-5.55556-5.55555H5.55555C2.48148 843.05723 0 845.53872 0 848.61278v86.11111c0 3.07407 2.48149 5.55555 5.55555 5.55555h66.66666c3.07408 0 5.55556-2.48149 5.55556-5.55555v-19.44443H61.1111v5.55555c0 1.53704-1.24075 2.77778-2.77778 2.77778H19.44443c-1.53704 0-2.77778-1.24074-2.77778-2.77778v-58.33334c0-1.53704 1.24074-2.77778 2.77778-2.77778h38.88889c1.53703 0 2.77778 1.24074 2.77778 2.77778v5.55555h16.66667v-.00001z"/><path d="M43.61914 282.3363L0 376.00037h22.95703l15.15234-32.59766h22.03907c14.23338 0 21.57804-4.13263 27.54687-16.07031 1.83657-3.67313 5.51031-11.93843 9.64258-20.66211 7.34626-16.98823-1.83655-24.33399-11.47852-24.33399zm15.60938 15.15235h14.23437c2.75485 0 5.50891 1.37671 2.29492 7.80469-4.13227 8.72369-7.3457 15.15219-7.3457 15.61132-1.83657 4.13227-4.59233 5.96875-8.72461 5.96875H45.91406z"/><path d="M7.388672 1029.1674C3.30765 1029.1674 0 1032.3753 0 1036.3334v85.6679c0 3.9583 3.308812 7.168 7.388672 7.168h85.226557c4.08009 0 7.38477-3.2118 7.38477-7.168v-85.6679c0-3.9569-3.30468-7.166-7.38477-7.166zm15.470699 16.791c5.16771 0 8.34683 3.3703 8.44727 7.7969 0 4.339-3.27877 7.8027-8.54297 7.8027h-.10156c-5.06681 0-8.351564-3.4646-8.351564-7.8027 0-4.4256 3.381574-7.7969 8.548824-7.7969zm44.52735 20.7051c9.94157 0 17.39453 6.4499 17.39453 20.3242v25.8886h-15.10352v-24.1562c0-6.0698-2.1881-10.2129-7.65039-10.2129-4.17867 0-6.66075 2.7945-7.75 5.4922-.40361.9635-.50195 2.3105-.50195 3.6562v25.2188h-15.10156s.19761-40.914 0-45.1484h15.10351v6.4003c2.00505-3.0757 5.58846-7.4628 13.60938-7.4628zm-52.17969 1.0625h15.10937v45.1503h-15.10937z"/><path d="M54.397193 1251.9309c.646338-1.6985 2.780731-1.6985 4.5093-1.6985h.315647v-2.3298s-6.673762.1503-8.717978.1503c-2.044215 0-8.342202-.1503-8.342202-.1503v2.3298h.315647c1.713534 0 3.847937 0 4.509299 1.6985a32.677398 32.677398 0 0 1 .480987 7.29v14.8957a32.677398 32.677398 0 0 1-.526081 7.29c-.646337 1.6985-2.78073 1.6985-4.509299 1.6985h-.315647v2.3298s5.396131-.2404 8.357237-.2404c3.397009 0 8.702953.2404 8.702953.2404v-2.3298h-.285588c-1.713534 0-3.847937 0-4.509299-1.6985a31.790566 31.790566 0 0 1-.541116-7.29v-14.8957a31.790566 31.790566 0 0 1 .55615-7.29zm9.875372-3.9832v9.725h2.314778v-.3006c.210434-6.3281 2.630425-6.5986 8.086674-6.5986h.571175c1.352794 0 2.630425 0 3.141481.481a.93192511.93192511 0 0 1 .240494.7064v25.5527c0 3.8029-.526081 5.3661-5.877119 5.5916h-.300621v2.3298s6.237868-.2405 9.845302-.2405c2.750671 0 8.898352.2405 8.898352.2405v-2.2998h-.315646c-5.320978-.2255-5.832025-1.7887-5.832025-5.5915v-25.5527a.81167832.81167832 0 0 1 .255528-.6313c.616269-.6163 2.314779-.5862 3.667563-.5712h.75155c5.351037 0 7.064571 1.5031 7.380218 6.6136v.2856h2.299743v-9.7401s-13.527899.09-17.556211.09c-4.028313 0-17.571236-.09-17.571236-.09zm-27.326361 35.1575a6.6587373 6.6587373 0 0 1-5.245815-2.7056l-11.077849-12.7162c5.801965-.8117 9.424433-4.6897 9.424433-10.2662a8.1918964 8.1918964 0 0 0-4.163584-7.771 18.382914 18.382914 0 0 0-8.913387-1.7286c-1.172418.015-3.983218.1202-7.0795958.1202-3.0963773 0-9.89039597-.1352-9.89039597-.1352v2.3298h.46596255c1.75862802 0 3.75774972 0 4.28383072 1.6834a33.819747 33.819747 0 0 1 .4809871 6.8993v15.3015a53.871102 53.871102 0 0 1-.2254689 6.0124 7.1848182 7.1848182 0 0 1-.2555282 1.3077c-.5411156 1.6685-2.7055778 1.6685-4.43414665 1.6685H2.6e-7v2.3448s5.20072124-.2405 8.67288354-.2405c3.0062002 0 8.1768622.2255 8.1768622.2405v-2.3599h-.465963c-1.743593 0-3.712656 0-4.283831-1.6684a7.0345122 7.0345122 0 0 1-.270562-1.3077 49.45199 49.45199 0 0 1-.225469-5.5915v-6.2529c2.074274 0 2.254649.2254 3.321846 1.5031.1954.2405.420869.511.691422.8117l9.304186 11.4836 2.720613 3.367s3.006199-.1353 4.419112-.1353c2.119368 0 5.23079.1353 5.23079.1353v-2.2998l-.345716-.03zm-25.342263-17.3909v-13.6331c0-.5411 0-1.2777.420868-1.5031a30.512926 30.512926 0 0 1 3.502222 0c4.749793 0 7.515499 2.7957 7.515499 7.6357 0 3.5323-.931925 5.5615-3.0062 6.5836-2.074274 1.0221-8.432389.9169-8.432389.9169z"/></svg>