<?xml version="1.0" standalone="no"?>
<!DOCTYPE svg PUBLIC "-//W3C//DTD SVG 20010904//EN"
 "http://www.w3.org/TR/2001/REC-SVG-20010904/DTD/svg10.dtd">
<svg version="1.0" xmlns="http://www.w3.org/2000/svg"
 width="520.000000pt" height="520.000000pt" viewBox="0 0 520.000000 520.000000"
 preserveAspectRatio="xMidYMid meet">
<metadata>
Created by potrace 1.11, written by Peter Selinger 2001-2013
</metadata>
<g transform="translate(0.000000,520.000000) scale(0.100000,-0.100000)"
fill="#000000" stroke="none">
<path d="M436 5164 c-203 -49 -372 -220 -421 -425 -13 -55 -15 -237 -15 -1367
l0 -1302 56 45 c120 98 260 148 414 148 262 0 463 -140 521 -365 l13 -46 -54
-84 c-72 -110 -90 -134 -90 -117 0 8 -16 47 -35 87 -45 95 -117 170 -203 213
-61 31 -75 34 -157 34 -82 0 -97 -3 -156 -32 -80 -39 -150 -111 -187 -191 -24
-51 -27 -69 -27 -167 0 -101 2 -115 29 -169 57 -116 161 -186 308 -206 141
-20 250 15 381 120 107 85 236 252 327 422 l34 65 -47 189 c-85 344 -145 721
-179 1114 -16 195 -16 711 0 870 49 469 165 758 343 854 69 38 165 46 272 22
459 -102 547 -782 250 -1951 -73 -288 -197 -683 -298 -950 -21 -55 -38 -109
-37 -121 3 -46 87 -277 142 -390 70 -143 139 -228 201 -244 54 -15 116 13 160
72 199 270 326 1192 359 2607 5 228 11 416 14 418 2 2 65 -26 140 -64 l136
-68 0 -300 c1 -914 75 -1725 201 -2170 86 -309 194 -469 337 -500 17 -3 32 -8
32 -9 0 -30 -28 -132 -45 -166 -27 -54 -48 -74 -98 -95 -98 -41 -201 13 -300
159 -102 151 -218 482 -268 764 -7 39 -16 72 -21 72 -4 0 -8 -9 -8 -19 0 -35
-71 -301 -111 -419 -98 -283 -229 -471 -376 -540 -51 -24 -70 -27 -158 -27
-89 0 -106 3 -150 27 -106 55 -235 224 -326 423 -23 52 -45 95 -48 95 -3 -1
-30 -37 -60 -82 -66 -98 -193 -234 -281 -300 -83 -63 -205 -123 -295 -144 -85
-20 -268 -14 -360 11 -82 22 -191 76 -242 119 -22 20 -44 36 -47 36 -3 0 -6
-134 -6 -297 0 -329 6 -375 62 -492 42 -89 158 -206 248 -249 134 -65 65 -62
1375 -62 l1190 0 50 61 c217 264 646 573 983 705 l72 29 30 95 c27 88 128 449
144 513 6 24 -1 20 -56 -35 -145 -142 -287 -193 -434 -153 -217 59 -341 263
-401 662 -25 165 -24 694 0 943 32 310 107 834 135 932 l7 25 141 -68 140 -68
-27 -163 c-80 -478 -113 -859 -106 -1228 5 -275 16 -373 58 -515 44 -149 134
-275 197 -275 123 0 290 314 452 846 149 491 280 1169 280 1450 l0 54 142 -71
141 -71 -6 -181 c-17 -494 -149 -1268 -352 -2072 -46 -181 -95 -369 -109 -417
-14 -49 -21 -88 -16 -88 4 0 52 9 105 20 174 36 316 51 538 57 l217 6 0 1831
c0 2018 4 1890 -63 2025 -43 89 -159 205 -248 248 -136 67 21 63 -2294 62
-1783 -1 -2109 -3 -2159 -15z"/>
<path d="M1383 4595 c-104 -45 -160 -274 -170 -695 -10 -420 31 -890 123
-1425 14 -82 30 -157 34 -164 11 -20 88 227 155 494 224 894 211 1677 -28
1786 -50 22 -71 23 -114 4z"/>
<path d="M5000 709 c-228 -14 -507 -61 -705 -120 l-71 -21 -91 -274 -91 -274
332 0 c365 0 396 4 516 62 45 21 88 55 140 107 121 121 170 246 170 434 l0 97
-32 -1 c-18 -1 -94 -6 -168 -10z"/>
<path d="M3736 350 c-129 -75 -268 -176 -358 -261 l-73 -68 205 -1 205 0 65
183 c35 100 66 188 68 195 7 20 -8 14 -112 -48z"/>
</g>
</svg>
